<?xml version="1.0" encoding="utf-8" standalone="no"?>
<!DOCTYPE svg PUBLIC "-//W3C//DTD SVG 1.1//EN"
  "http://www.w3.org/Graphics/SVG/1.1/DTD/svg11.dtd">
<svg xmlns:xlink="http://www.w3.org/1999/xlink" width="519.954665pt" height="376.21625pt" viewBox="0 0 519.954665 376.21625" xmlns="http://www.w3.org/2000/svg" version="1.1">
 <metadata>
  <rdf:RDF xmlns:dc="http://purl.org/dc/elements/1.1/" xmlns:cc="http://creativecommons.org/ns#" xmlns:rdf="http://www.w3.org/1999/02/22-rdf-syntax-ns#">
   <cc:Work>
    <dc:type rdf:resource="http://purl.org/dc/dcmitype/StillImage"/>
    <dc:date>2026-04-09T17:33:44.209800</dc:date>
    <dc:format>image/svg+xml</dc:format>
    <dc:creator>
     <cc:Agent>
      <dc:title>Matplotlib v3.8.0, https://matplotlib.org/</dc:title>
     </cc:Agent>
    </dc:creator>
   </cc:Work>
  </rdf:RDF>
 </metadata>
 <defs>
  <style type="text/css">*{stroke-linejoin: round; stroke-linecap: butt}</style>
 </defs>
 <g id="figure_1">
  <g id="patch_1">
   <path d="M 0 376.21625 
L 519.954665 376.21625 
L 519.954665 0 
L 0 0 
z
" style="fill: #ffffff"/>
  </g>
  <g id="axes_1">
   <g id="patch_2">
    <path d="M 77.785 315.0175 
L 498.354665 315.0175 
L 498.354665 48.7575 
L 77.785 48.7575 
z
" style="fill: #ffffff"/>
   </g>
   <g id="matplotlib.axis_1">
    <g id="xtick_1">
     <g id="line2d_1">
      <defs>
       <path id="mf99e88d198" d="M 0 0 
L 0 5 
" style="stroke: #444444; stroke-width: 1.2"/>
      </defs>
      <g>
       <use xlink:href="#mf99e88d198" x="137.543825" y="315.0175" style="fill: #444444; stroke: #444444; stroke-width: 1.2"/>
      </g>
     </g>
     <g id="text_1">
      <!-- T→M -->
      <g style="fill: #444444" transform="translate(123.67445 332.635625) scale(0.12 -0.12)">
       <defs>
        <path id="DejaVuSans-54" d="M -19 4666 
L 3928 4666 
L 3928 4134 
L 2272 4134 
L 2272 0 
L 1638 0 
L 1638 4134 
L -19 4134 
L -19 4666 
z
" transform="scale(0.015625)"/>
        <path id="DejaVuSans-2192" d="M 5050 2147 
L 5050 1866 
L 3822 638 
L 3447 1013 
L 4175 1741 
L 366 1741 
L 366 2272 
L 4175 2272 
L 3447 3000 
L 3822 3375 
L 5050 2147 
z
" transform="scale(0.015625)"/>
        <path id="DejaVuSans-4d" d="M 628 4666 
L 1569 4666 
L 2759 1491 
L 3956 4666 
L 4897 4666 
L 4897 0 
L 4281 0 
L 4281 4097 
L 3078 897 
L 2444 897 
L 1241 4097 
L 1241 0 
L 628 0 
L 628 4666 
z
" transform="scale(0.015625)"/>
       </defs>
       <use xlink:href="#DejaVuSans-54"/>
       <use xlink:href="#DejaVuSans-2192" x="61.083984"/>
       <use xlink:href="#DejaVuSans-4d" x="144.873047"/>
      </g>
     </g>
    </g>
    <g id="xtick_2">
     <g id="line2d_2">
      <g>
       <use xlink:href="#mf99e88d198" x="288.069832" y="315.0175" style="fill: #444444; stroke: #444444; stroke-width: 1.2"/>
      </g>
     </g>
     <g id="text_2">
      <!-- M→B -->
      <g style="fill: #444444" transform="translate(273.748582 332.635625) scale(0.12 -0.12)">
       <defs>
        <path id="DejaVuSans-42" d="M 1259 2228 
L 1259 519 
L 2272 519 
Q 2781 519 3026 730 
Q 3272 941 3272 1375 
Q 3272 1813 3026 2020 
Q 2781 2228 2272 2228 
L 1259 2228 
z
M 1259 4147 
L 1259 2741 
L 2194 2741 
Q 2656 2741 2882 2914 
Q 3109 3088 3109 3444 
Q 3109 3797 2882 3972 
Q 2656 4147 2194 4147 
L 1259 4147 
z
M 628 4666 
L 2241 4666 
Q 2963 4666 3353 4366 
Q 3744 4066 3744 3513 
Q 3744 3084 3544 2831 
Q 3344 2578 2956 2516 
Q 3422 2416 3680 2098 
Q 3938 1781 3938 1306 
Q 3938 681 3513 340 
Q 3088 0 2303 0 
L 628 0 
L 628 4666 
z
" transform="scale(0.015625)"/>
       </defs>
       <use xlink:href="#DejaVuSans-4d"/>
       <use xlink:href="#DejaVuSans-2192" x="86.279297"/>
       <use xlink:href="#DejaVuSans-42" x="170.068359"/>
      </g>
     </g>
    </g>
    <g id="xtick_3">
     <g id="line2d_3">
      <g>
       <use xlink:href="#mf99e88d198" x="438.59584" y="315.0175" style="fill: #444444; stroke: #444444; stroke-width: 1.2"/>
      </g>
     </g>
     <g id="text_3">
      <!-- B→T -->
      <g style="fill: #444444" transform="translate(425.786777 332.635625) scale(0.12 -0.12)">
       <use xlink:href="#DejaVuSans-42"/>
       <use xlink:href="#DejaVuSans-2192" x="68.603516"/>
       <use xlink:href="#DejaVuSans-54" x="152.392578"/>
      </g>
     </g>
    </g>
    <g id="text_4">
     <!-- Task -->
     <g style="fill: #262626" transform="translate(268.162332 351.28875) scale(0.16 -0.16)">
      <defs>
       <path id="DejaVuSans-Bold-54" d="M 31 4666 
L 4331 4666 
L 4331 3756 
L 2784 3756 
L 2784 0 
L 1581 0 
L 1581 3756 
L 31 3756 
L 31 4666 
z
" transform="scale(0.015625)"/>
       <path id="DejaVuSans-Bold-61" d="M 2106 1575 
Q 1756 1575 1579 1456 
Q 1403 1338 1403 1106 
Q 1403 894 1545 773 
Q 1688 653 1941 653 
Q 2256 653 2472 879 
Q 2688 1106 2688 1447 
L 2688 1575 
L 2106 1575 
z
M 3816 1997 
L 3816 0 
L 2688 0 
L 2688 519 
Q 2463 200 2181 54 
Q 1900 -91 1497 -91 
Q 953 -91 614 226 
Q 275 544 275 1050 
Q 275 1666 698 1953 
Q 1122 2241 2028 2241 
L 2688 2241 
L 2688 2328 
Q 2688 2594 2478 2717 
Q 2269 2841 1825 2841 
Q 1466 2841 1156 2769 
Q 847 2697 581 2553 
L 581 3406 
Q 941 3494 1303 3539 
Q 1666 3584 2028 3584 
Q 2975 3584 3395 3211 
Q 3816 2838 3816 1997 
z
" transform="scale(0.015625)"/>
       <path id="DejaVuSans-Bold-73" d="M 3272 3391 
L 3272 2541 
Q 2913 2691 2578 2766 
Q 2244 2841 1947 2841 
Q 1628 2841 1473 2761 
Q 1319 2681 1319 2516 
Q 1319 2381 1436 2309 
Q 1553 2238 1856 2203 
L 2053 2175 
Q 2913 2066 3209 1816 
Q 3506 1566 3506 1031 
Q 3506 472 3093 190 
Q 2681 -91 1863 -91 
Q 1516 -91 1145 -36 
Q 775 19 384 128 
L 384 978 
Q 719 816 1070 734 
Q 1422 653 1784 653 
Q 2113 653 2278 743 
Q 2444 834 2444 1013 
Q 2444 1163 2330 1236 
Q 2216 1309 1875 1350 
L 1678 1375 
Q 931 1469 631 1722 
Q 331 1975 331 2491 
Q 331 3047 712 3315 
Q 1094 3584 1881 3584 
Q 2191 3584 2531 3537 
Q 2872 3491 3272 3391 
z
" transform="scale(0.015625)"/>
       <path id="DejaVuSans-Bold-6b" d="M 538 4863 
L 1656 4863 
L 1656 2216 
L 2944 3500 
L 4244 3500 
L 2534 1894 
L 4378 0 
L 3022 0 
L 1656 1459 
L 1656 0 
L 538 0 
L 538 4863 
z
" transform="scale(0.015625)"/>
      </defs>
      <use xlink:href="#DejaVuSans-Bold-54"/>
      <use xlink:href="#DejaVuSans-Bold-61" x="55.337891"/>
      <use xlink:href="#DejaVuSans-Bold-73" x="122.818359"/>
      <use xlink:href="#DejaVuSans-Bold-6b" x="182.339844"/>
     </g>
    </g>
   </g>
   <g id="matplotlib.axis_2">
    <g id="ytick_1">
     <g id="line2d_4">
      <path d="M 77.785 315.0175 
L 498.354665 315.0175 
" clip-path="url(#p7fe3113cb9)" style="fill: none; stroke-dasharray: 5.55,2.4; stroke-dashoffset: 0; stroke: #333333; stroke-opacity: 0.2; stroke-width: 1.5"/>
     </g>
     <g id="line2d_5">
      <defs>
       <path id="m93b5d715e0" d="M 0 0 
L -5 0 
" style="stroke: #444444; stroke-width: 1.2"/>
      </defs>
      <g>
       <use xlink:href="#m93b5d715e0" x="77.785" y="315.0175" style="fill: #444444; stroke: #444444; stroke-width: 1.2"/>
      </g>
     </g>
     <g id="text_5">
      <!-- $\mathdefault{10^{-1}}$ -->
      <g style="fill: #444444" transform="translate(41.085 319.576563) scale(0.12 -0.12)">
       <defs>
        <path id="DejaVuSans-31" d="M 794 531 
L 1825 531 
L 1825 4091 
L 703 3866 
L 703 4441 
L 1819 4666 
L 2450 4666 
L 2450 531 
L 3481 531 
L 3481 0 
L 794 0 
L 794 531 
z
" transform="scale(0.015625)"/>
        <path id="DejaVuSans-30" d="M 2034 4250 
Q 1547 4250 1301 3770 
Q 1056 3291 1056 2328 
Q 1056 1369 1301 889 
Q 1547 409 2034 409 
Q 2525 409 2770 889 
Q 3016 1369 3016 2328 
Q 3016 3291 2770 3770 
Q 2525 4250 2034 4250 
z
M 2034 4750 
Q 2819 4750 3233 4129 
Q 3647 3509 3647 2328 
Q 3647 1150 3233 529 
Q 2819 -91 2034 -91 
Q 1250 -91 836 529 
Q 422 1150 422 2328 
Q 422 3509 836 4129 
Q 1250 4750 2034 4750 
z
" transform="scale(0.015625)"/>
        <path id="DejaVuSans-2212" d="M 678 2272 
L 4684 2272 
L 4684 1741 
L 678 1741 
L 678 2272 
z
" transform="scale(0.015625)"/>
       </defs>
       <use xlink:href="#DejaVuSans-31" transform="translate(0 0.684375)"/>
       <use xlink:href="#DejaVuSans-30" transform="translate(63.623047 0.684375)"/>
       <use xlink:href="#DejaVuSans-2212" transform="translate(128.203125 38.965625) scale(0.7)"/>
       <use xlink:href="#DejaVuSans-31" transform="translate(186.855469 38.965625) scale(0.7)"/>
      </g>
     </g>
    </g>
    <g id="ytick_2">
     <g id="line2d_6">
      <path d="M 77.785 248.4525 
L 498.354665 248.4525 
" clip-path="url(#p7fe3113cb9)" style="fill: none; stroke-dasharray: 5.55,2.4; stroke-dashoffset: 0; stroke: #333333; stroke-opacity: 0.2; stroke-width: 1.5"/>
     </g>
     <g id="line2d_7">
      <g>
       <use xlink:href="#m93b5d715e0" x="77.785" y="248.4525" style="fill: #444444; stroke: #444444; stroke-width: 1.2"/>
      </g>
     </g>
     <g id="text_6">
      <!-- $\mathdefault{10^{0}}$ -->
      <g style="fill: #444444" transform="translate(48.165 253.011563) scale(0.12 -0.12)">
       <use xlink:href="#DejaVuSans-31" transform="translate(0 0.765625)"/>
       <use xlink:href="#DejaVuSans-30" transform="translate(63.623047 0.765625)"/>
       <use xlink:href="#DejaVuSans-30" transform="translate(128.203125 39.046875) scale(0.7)"/>
      </g>
     </g>
    </g>
    <g id="ytick_3">
     <g id="line2d_8">
      <path d="M 77.785 181.8875 
L 498.354665 181.8875 
" clip-path="url(#p7fe3113cb9)" style="fill: none; stroke-dasharray: 5.55,2.4; stroke-dashoffset: 0; stroke: #333333; stroke-opacity: 0.2; stroke-width: 1.5"/>
     </g>
     <g id="line2d_9">
      <g>
       <use xlink:href="#m93b5d715e0" x="77.785" y="181.8875" style="fill: #444444; stroke: #444444; stroke-width: 1.2"/>
      </g>
     </g>
     <g id="text_7">
      <!-- $\mathdefault{10^{1}}$ -->
      <g style="fill: #444444" transform="translate(48.165 186.446563) scale(0.12 -0.12)">
       <use xlink:href="#DejaVuSans-31" transform="translate(0 0.684375)"/>
       <use xlink:href="#DejaVuSans-30" transform="translate(63.623047 0.684375)"/>
       <use xlink:href="#DejaVuSans-31" transform="translate(128.203125 38.965625) scale(0.7)"/>
      </g>
     </g>
    </g>
    <g id="ytick_4">
     <g id="line2d_10">
      <path d="M 77.785 115.3225 
L 498.354665 115.3225 
" clip-path="url(#p7fe3113cb9)" style="fill: none; stroke-dasharray: 5.55,2.4; stroke-dashoffset: 0; stroke: #333333; stroke-opacity: 0.2; stroke-width: 1.5"/>
     </g>
     <g id="line2d_11">
      <g>
       <use xlink:href="#m93b5d715e0" x="77.785" y="115.3225" style="fill: #444444; stroke: #444444; stroke-width: 1.2"/>
      </g>
     </g>
     <g id="text_8">
      <!-- $\mathdefault{10^{2}}$ -->
      <g style="fill: #444444" transform="translate(48.165 119.881563) scale(0.12 -0.12)">
       <defs>
        <path id="DejaVuSans-32" d="M 1228 531 
L 3431 531 
L 3431 0 
L 469 0 
L 469 531 
Q 828 903 1448 1529 
Q 2069 2156 2228 2338 
Q 2531 2678 2651 2914 
Q 2772 3150 2772 3378 
Q 2772 3750 2511 3984 
Q 2250 4219 1831 4219 
Q 1534 4219 1204 4116 
Q 875 4013 500 3803 
L 500 4441 
Q 881 4594 1212 4672 
Q 1544 4750 1819 4750 
Q 2544 4750 2975 4387 
Q 3406 4025 3406 3419 
Q 3406 3131 3298 2873 
Q 3191 2616 2906 2266 
Q 2828 2175 2409 1742 
Q 1991 1309 1228 531 
z
" transform="scale(0.015625)"/>
       </defs>
       <use xlink:href="#DejaVuSans-31" transform="translate(0 0.765625)"/>
       <use xlink:href="#DejaVuSans-30" transform="translate(63.623047 0.765625)"/>
       <use xlink:href="#DejaVuSans-32" transform="translate(128.203125 39.046875) scale(0.7)"/>
      </g>
     </g>
    </g>
    <g id="ytick_5">
     <g id="line2d_12">
      <path d="M 77.785 48.7575 
L 498.354665 48.7575 
" clip-path="url(#p7fe3113cb9)" style="fill: none; stroke-dasharray: 5.55,2.4; stroke-dashoffset: 0; stroke: #333333; stroke-opacity: 0.2; stroke-width: 1.5"/>
     </g>
     <g id="line2d_13">
      <g>
       <use xlink:href="#m93b5d715e0" x="77.785" y="48.7575" style="fill: #444444; stroke: #444444; stroke-width: 1.2"/>
      </g>
     </g>
     <g id="text_9">
      <!-- $\mathdefault{10^{3}}$ -->
      <g style="fill: #444444" transform="translate(48.165 53.316562) scale(0.12 -0.12)">
       <defs>
        <path id="DejaVuSans-33" d="M 2597 2516 
Q 3050 2419 3304 2112 
Q 3559 1806 3559 1356 
Q 3559 666 3084 287 
Q 2609 -91 1734 -91 
Q 1441 -91 1130 -33 
Q 819 25 488 141 
L 488 750 
Q 750 597 1062 519 
Q 1375 441 1716 441 
Q 2309 441 2620 675 
Q 2931 909 2931 1356 
Q 2931 1769 2642 2001 
Q 2353 2234 1838 2234 
L 1294 2234 
L 1294 2753 
L 1863 2753 
Q 2328 2753 2575 2939 
Q 2822 3125 2822 3475 
Q 2822 3834 2567 4026 
Q 2313 4219 1838 4219 
Q 1578 4219 1281 4162 
Q 984 4106 628 3988 
L 628 4550 
Q 988 4650 1302 4700 
Q 1616 4750 1894 4750 
Q 2613 4750 3031 4423 
Q 3450 4097 3450 3541 
Q 3450 3153 3228 2886 
Q 3006 2619 2597 2516 
z
" transform="scale(0.015625)"/>
       </defs>
       <use xlink:href="#DejaVuSans-31" transform="translate(0 0.765625)"/>
       <use xlink:href="#DejaVuSans-30" transform="translate(63.623047 0.765625)"/>
       <use xlink:href="#DejaVuSans-33" transform="translate(128.203125 39.046875) scale(0.7)"/>
      </g>
     </g>
    </g>
    <g id="ytick_6">
     <g id="line2d_14">
      <defs>
       <path id="m9938c07ab8" d="M 0 0 
L -3 0 
" style="stroke: #262626; stroke-width: 0.8"/>
      </defs>
      <g>
       <use xlink:href="#m9938c07ab8" x="77.785" y="294.979438" style="fill: #262626; stroke: #262626; stroke-width: 0.8"/>
      </g>
     </g>
    </g>
    <g id="ytick_7">
     <g id="line2d_15">
      <g>
       <use xlink:href="#m9938c07ab8" x="77.785" y="283.257924" style="fill: #262626; stroke: #262626; stroke-width: 0.8"/>
      </g>
     </g>
    </g>
    <g id="ytick_8">
     <g id="line2d_16">
      <g>
       <use xlink:href="#m9938c07ab8" x="77.785" y="274.941377" style="fill: #262626; stroke: #262626; stroke-width: 0.8"/>
      </g>
     </g>
    </g>
    <g id="ytick_9">
     <g id="line2d_17">
      <g>
       <use xlink:href="#m9938c07ab8" x="77.785" y="268.490562" style="fill: #262626; stroke: #262626; stroke-width: 0.8"/>
      </g>
     </g>
    </g>
    <g id="ytick_10">
     <g id="line2d_18">
      <g>
       <use xlink:href="#m9938c07ab8" x="77.785" y="263.219862" style="fill: #262626; stroke: #262626; stroke-width: 0.8"/>
      </g>
     </g>
    </g>
    <g id="ytick_11">
     <g id="line2d_19">
      <g>
       <use xlink:href="#m9938c07ab8" x="77.785" y="258.763549" style="fill: #262626; stroke: #262626; stroke-width: 0.8"/>
      </g>
     </g>
    </g>
    <g id="ytick_12">
     <g id="line2d_20">
      <g>
       <use xlink:href="#m9938c07ab8" x="77.785" y="254.903315" style="fill: #262626; stroke: #262626; stroke-width: 0.8"/>
      </g>
     </g>
    </g>
    <g id="ytick_13">
     <g id="line2d_21">
      <g>
       <use xlink:href="#m9938c07ab8" x="77.785" y="251.498347" style="fill: #262626; stroke: #262626; stroke-width: 0.8"/>
      </g>
     </g>
    </g>
    <g id="ytick_14">
     <g id="line2d_22">
      <g>
       <use xlink:href="#m9938c07ab8" x="77.785" y="228.414438" style="fill: #262626; stroke: #262626; stroke-width: 0.8"/>
      </g>
     </g>
    </g>
    <g id="ytick_15">
     <g id="line2d_23">
      <g>
       <use xlink:href="#m9938c07ab8" x="77.785" y="216.692924" style="fill: #262626; stroke: #262626; stroke-width: 0.8"/>
      </g>
     </g>
    </g>
    <g id="ytick_16">
     <g id="line2d_24">
      <g>
       <use xlink:href="#m9938c07ab8" x="77.785" y="208.376377" style="fill: #262626; stroke: #262626; stroke-width: 0.8"/>
      </g>
     </g>
    </g>
    <g id="ytick_17">
     <g id="line2d_25">
      <g>
       <use xlink:href="#m9938c07ab8" x="77.785" y="201.925562" style="fill: #262626; stroke: #262626; stroke-width: 0.8"/>
      </g>
     </g>
    </g>
    <g id="ytick_18">
     <g id="line2d_26">
      <g>
       <use xlink:href="#m9938c07ab8" x="77.785" y="196.654862" style="fill: #262626; stroke: #262626; stroke-width: 0.8"/>
      </g>
     </g>
    </g>
    <g id="ytick_19">
     <g id="line2d_27">
      <g>
       <use xlink:href="#m9938c07ab8" x="77.785" y="192.198549" style="fill: #262626; stroke: #262626; stroke-width: 0.8"/>
      </g>
     </g>
    </g>
    <g id="ytick_20">
     <g id="line2d_28">
      <g>
       <use xlink:href="#m9938c07ab8" x="77.785" y="188.338315" style="fill: #262626; stroke: #262626; stroke-width: 0.8"/>
      </g>
     </g>
    </g>
    <g id="ytick_21">
     <g id="line2d_29">
      <g>
       <use xlink:href="#m9938c07ab8" x="77.785" y="184.933347" style="fill: #262626; stroke: #262626; stroke-width: 0.8"/>
      </g>
     </g>
    </g>
    <g id="ytick_22">
     <g id="line2d_30">
      <g>
       <use xlink:href="#m9938c07ab8" x="77.785" y="161.849438" style="fill: #262626; stroke: #262626; stroke-width: 0.8"/>
      </g>
     </g>
    </g>
    <g id="ytick_23">
     <g id="line2d_31">
      <g>
       <use xlink:href="#m9938c07ab8" x="77.785" y="150.127924" style="fill: #262626; stroke: #262626; stroke-width: 0.8"/>
      </g>
     </g>
    </g>
    <g id="ytick_24">
     <g id="line2d_32">
      <g>
       <use xlink:href="#m9938c07ab8" x="77.785" y="141.811377" style="fill: #262626; stroke: #262626; stroke-width: 0.8"/>
      </g>
     </g>
    </g>
    <g id="ytick_25">
     <g id="line2d_33">
      <g>
       <use xlink:href="#m9938c07ab8" x="77.785" y="135.360562" style="fill: #262626; stroke: #262626; stroke-width: 0.8"/>
      </g>
     </g>
    </g>
    <g id="ytick_26">
     <g id="line2d_34">
      <g>
       <use xlink:href="#m9938c07ab8" x="77.785" y="130.089862" style="fill: #262626; stroke: #262626; stroke-width: 0.8"/>
      </g>
     </g>
    </g>
    <g id="ytick_27">
     <g id="line2d_35">
      <g>
       <use xlink:href="#m9938c07ab8" x="77.785" y="125.633549" style="fill: #262626; stroke: #262626; stroke-width: 0.8"/>
      </g>
     </g>
    </g>
    <g id="ytick_28">
     <g id="line2d_36">
      <g>
       <use xlink:href="#m9938c07ab8" x="77.785" y="121.773315" style="fill: #262626; stroke: #262626; stroke-width: 0.8"/>
      </g>
     </g>
    </g>
    <g id="ytick_29">
     <g id="line2d_37">
      <g>
       <use xlink:href="#m9938c07ab8" x="77.785" y="118.368347" style="fill: #262626; stroke: #262626; stroke-width: 0.8"/>
      </g>
     </g>
    </g>
    <g id="ytick_30">
     <g id="line2d_38">
      <g>
       <use xlink:href="#m9938c07ab8" x="77.785" y="95.284438" style="fill: #262626; stroke: #262626; stroke-width: 0.8"/>
      </g>
     </g>
    </g>
    <g id="ytick_31">
     <g id="line2d_39">
      <g>
       <use xlink:href="#m9938c07ab8" x="77.785" y="83.562924" style="fill: #262626; stroke: #262626; stroke-width: 0.8"/>
      </g>
     </g>
    </g>
    <g id="ytick_32">
     <g id="line2d_40">
      <g>
       <use xlink:href="#m9938c07ab8" x="77.785" y="75.246377" style="fill: #262626; stroke: #262626; stroke-width: 0.8"/>
      </g>
     </g>
    </g>
    <g id="ytick_33">
     <g id="line2d_41">
      <g>
       <use xlink:href="#m9938c07ab8" x="77.785" y="68.795562" style="fill: #262626; stroke: #262626; stroke-width: 0.8"/>
      </g>
     </g>
    </g>
    <g id="ytick_34">
     <g id="line2d_42">
      <g>
       <use xlink:href="#m9938c07ab8" x="77.785" y="63.524862" style="fill: #262626; stroke: #262626; stroke-width: 0.8"/>
      </g>
     </g>
    </g>
    <g id="ytick_35">
     <g id="line2d_43">
      <g>
       <use xlink:href="#m9938c07ab8" x="77.785" y="59.068549" style="fill: #262626; stroke: #262626; stroke-width: 0.8"/>
      </g>
     </g>
    </g>
    <g id="ytick_36">
     <g id="line2d_44">
      <g>
       <use xlink:href="#m9938c07ab8" x="77.785" y="55.208315" style="fill: #262626; stroke: #262626; stroke-width: 0.8"/>
      </g>
     </g>
    </g>
    <g id="ytick_37">
     <g id="line2d_45">
      <g>
       <use xlink:href="#m9938c07ab8" x="77.785" y="51.803347" style="fill: #262626; stroke: #262626; stroke-width: 0.8"/>
      </g>
     </g>
    </g>
    <g id="text_10">
     <!-- Time (ms) -->
     <g style="fill: #262626" transform="translate(33.7575 227.045) rotate(-90) scale(0.16 -0.16)">
      <defs>
       <path id="DejaVuSans-Bold-69" d="M 538 3500 
L 1656 3500 
L 1656 0 
L 538 0 
L 538 3500 
z
M 538 4863 
L 1656 4863 
L 1656 3950 
L 538 3950 
L 538 4863 
z
" transform="scale(0.015625)"/>
       <path id="DejaVuSans-Bold-6d" d="M 3781 2919 
Q 3994 3244 4286 3414 
Q 4578 3584 4928 3584 
Q 5531 3584 5847 3212 
Q 6163 2841 6163 2131 
L 6163 0 
L 5038 0 
L 5038 1825 
Q 5041 1866 5042 1909 
Q 5044 1953 5044 2034 
Q 5044 2406 4934 2573 
Q 4825 2741 4581 2741 
Q 4263 2741 4089 2478 
Q 3916 2216 3909 1719 
L 3909 0 
L 2784 0 
L 2784 1825 
Q 2784 2406 2684 2573 
Q 2584 2741 2328 2741 
Q 2006 2741 1831 2477 
Q 1656 2213 1656 1722 
L 1656 0 
L 531 0 
L 531 3500 
L 1656 3500 
L 1656 2988 
Q 1863 3284 2130 3434 
Q 2397 3584 2719 3584 
Q 3081 3584 3359 3409 
Q 3638 3234 3781 2919 
z
" transform="scale(0.015625)"/>
       <path id="DejaVuSans-Bold-65" d="M 4031 1759 
L 4031 1441 
L 1416 1441 
Q 1456 1047 1700 850 
Q 1944 653 2381 653 
Q 2734 653 3104 758 
Q 3475 863 3866 1075 
L 3866 213 
Q 3469 63 3072 -14 
Q 2675 -91 2278 -91 
Q 1328 -91 801 392 
Q 275 875 275 1747 
Q 275 2603 792 3093 
Q 1309 3584 2216 3584 
Q 3041 3584 3536 3087 
Q 4031 2591 4031 1759 
z
M 2881 2131 
Q 2881 2450 2695 2645 
Q 2509 2841 2209 2841 
Q 1884 2841 1681 2658 
Q 1478 2475 1428 2131 
L 2881 2131 
z
" transform="scale(0.015625)"/>
       <path id="DejaVuSans-Bold-20" transform="scale(0.015625)"/>
       <path id="DejaVuSans-Bold-28" d="M 2413 -844 
L 1484 -844 
Q 1006 -72 778 623 
Q 550 1319 550 2003 
Q 550 2688 779 3389 
Q 1009 4091 1484 4856 
L 2413 4856 
Q 2013 4116 1813 3408 
Q 1613 2700 1613 2009 
Q 1613 1319 1811 609 
Q 2009 -100 2413 -844 
z
" transform="scale(0.015625)"/>
       <path id="DejaVuSans-Bold-29" d="M 513 -844 
Q 913 -100 1113 609 
Q 1313 1319 1313 2009 
Q 1313 2700 1113 3408 
Q 913 4116 513 4856 
L 1441 4856 
Q 1916 4091 2145 3389 
Q 2375 2688 2375 2003 
Q 2375 1319 2147 623 
Q 1919 -72 1441 -844 
L 513 -844 
z
" transform="scale(0.015625)"/>
      </defs>
      <use xlink:href="#DejaVuSans-Bold-54"/>
      <use xlink:href="#DejaVuSans-Bold-69" x="68.212891"/>
      <use xlink:href="#DejaVuSans-Bold-6d" x="102.490234"/>
      <use xlink:href="#DejaVuSans-Bold-65" x="206.689453"/>
      <use xlink:href="#DejaVuSans-Bold-20" x="274.511719"/>
      <use xlink:href="#DejaVuSans-Bold-28" x="309.326172"/>
      <use xlink:href="#DejaVuSans-Bold-6d" x="355.029297"/>
      <use xlink:href="#DejaVuSans-Bold-73" x="459.228516"/>
      <use xlink:href="#DejaVuSans-Bold-29" x="518.75"/>
     </g>
    </g>
   </g>
   <g id="LineCollection_1">
    <path d="M 96.901803 136.38451 
L 96.901803 104.537211 
" clip-path="url(#p7fe3113cb9)" style="fill: none; stroke: #4c72b0; stroke-width: 1.5"/>
    <path d="M 247.42781 126.297764 
L 247.42781 112.095386 
" clip-path="url(#p7fe3113cb9)" style="fill: none; stroke: #4c72b0; stroke-width: 1.5"/>
    <path d="M 397.953818 126.348519 
L 397.953818 99.060546 
" clip-path="url(#p7fe3113cb9)" style="fill: none; stroke: #4c72b0; stroke-width: 1.5"/>
   </g>
   <g id="line2d_46">
    <defs>
     <path id="m26ecb72b24" d="M 4 0 
L -4 -0 
" style="stroke: #4c72b0"/>
    </defs>
    <g clip-path="url(#p7fe3113cb9)">
     <use xlink:href="#m26ecb72b24" x="96.901803" y="136.38451" style="fill: #4c72b0; stroke: #4c72b0"/>
     <use xlink:href="#m26ecb72b24" x="247.42781" y="126.297764" style="fill: #4c72b0; stroke: #4c72b0"/>
     <use xlink:href="#m26ecb72b24" x="397.953818" y="126.348519" style="fill: #4c72b0; stroke: #4c72b0"/>
    </g>
   </g>
   <g id="line2d_47">
    <g clip-path="url(#p7fe3113cb9)">
     <use xlink:href="#m26ecb72b24" x="96.901803" y="104.537211" style="fill: #4c72b0; stroke: #4c72b0"/>
     <use xlink:href="#m26ecb72b24" x="247.42781" y="112.095386" style="fill: #4c72b0; stroke: #4c72b0"/>
     <use xlink:href="#m26ecb72b24" x="397.953818" y="99.060546" style="fill: #4c72b0; stroke: #4c72b0"/>
    </g>
   </g>
   <g id="LineCollection_2">
    <path d="M 123.996484 129.366628 
L 123.996484 127.589728 
" clip-path="url(#p7fe3113cb9)" style="fill: none; stroke: #55a868; stroke-width: 1.5"/>
    <path d="M 274.522492 140.788955 
L 274.522492 137.198555 
" clip-path="url(#p7fe3113cb9)" style="fill: none; stroke: #55a868; stroke-width: 1.5"/>
    <path d="M 425.048499 122.998636 
L 425.048499 122.115005 
" clip-path="url(#p7fe3113cb9)" style="fill: none; stroke: #55a868; stroke-width: 1.5"/>
   </g>
   <g id="line2d_48">
    <defs>
     <path id="m15c675008e" d="M 4 0 
L -4 -0 
" style="stroke: #55a868"/>
    </defs>
    <g clip-path="url(#p7fe3113cb9)">
     <use xlink:href="#m15c675008e" x="123.996484" y="129.366628" style="fill: #55a868; stroke: #55a868"/>
     <use xlink:href="#m15c675008e" x="274.522492" y="140.788955" style="fill: #55a868; stroke: #55a868"/>
     <use xlink:href="#m15c675008e" x="425.048499" y="122.998636" style="fill: #55a868; stroke: #55a868"/>
    </g>
   </g>
   <g id="line2d_49">
    <g clip-path="url(#p7fe3113cb9)">
     <use xlink:href="#m15c675008e" x="123.996484" y="127.589728" style="fill: #55a868; stroke: #55a868"/>
     <use xlink:href="#m15c675008e" x="274.522492" y="137.198555" style="fill: #55a868; stroke: #55a868"/>
     <use xlink:href="#m15c675008e" x="425.048499" y="122.115005" style="fill: #55a868; stroke: #55a868"/>
    </g>
   </g>
   <g id="LineCollection_3">
    <path d="M 151.091166 249.935328 
L 151.091166 214.201629 
" clip-path="url(#p7fe3113cb9)" style="fill: none; stroke: #8c6d1f; stroke-width: 1.5"/>
    <path d="M 301.617173 245.961205 
L 301.617173 196.799769 
" clip-path="url(#p7fe3113cb9)" style="fill: none; stroke: #8c6d1f; stroke-width: 1.5"/>
    <path d="M 452.143181 257.550414 
L 452.143181 208.448739 
" clip-path="url(#p7fe3113cb9)" style="fill: none; stroke: #8c6d1f; stroke-width: 1.5"/>
   </g>
   <g id="line2d_50">
    <defs>
     <path id="m737354b1aa" d="M 4 0 
L -4 -0 
" style="stroke: #8c6d1f"/>
    </defs>
    <g clip-path="url(#p7fe3113cb9)">
     <use xlink:href="#m737354b1aa" x="151.091166" y="249.935328" style="fill: #8c6d1f; stroke: #8c6d1f"/>
     <use xlink:href="#m737354b1aa" x="301.617173" y="245.961205" style="fill: #8c6d1f; stroke: #8c6d1f"/>
     <use xlink:href="#m737354b1aa" x="452.143181" y="257.550414" style="fill: #8c6d1f; stroke: #8c6d1f"/>
    </g>
   </g>
   <g id="line2d_51">
    <g clip-path="url(#p7fe3113cb9)">
     <use xlink:href="#m737354b1aa" x="151.091166" y="214.201629" style="fill: #8c6d1f; stroke: #8c6d1f"/>
     <use xlink:href="#m737354b1aa" x="301.617173" y="196.799769" style="fill: #8c6d1f; stroke: #8c6d1f"/>
     <use xlink:href="#m737354b1aa" x="452.143181" y="208.448739" style="fill: #8c6d1f; stroke: #8c6d1f"/>
    </g>
   </g>
   <g id="LineCollection_4">
    <path d="M 178.185847 245.176302 
L 178.185847 225.923144 
" clip-path="url(#p7fe3113cb9)" style="fill: none; stroke: #e69f00; stroke-width: 1.5"/>
    <path d="M 328.711854 224.626567 
L 328.711854 203.714306 
" clip-path="url(#p7fe3113cb9)" style="fill: none; stroke: #e69f00; stroke-width: 1.5"/>
    <path d="M 479.237862 257.949162 
L 479.237862 228.126786 
" clip-path="url(#p7fe3113cb9)" style="fill: none; stroke: #e69f00; stroke-width: 1.5"/>
   </g>
   <g id="line2d_52">
    <defs>
     <path id="mc414c6d592" d="M 4 0 
L -4 -0 
" style="stroke: #e69f00"/>
    </defs>
    <g clip-path="url(#p7fe3113cb9)">
     <use xlink:href="#mc414c6d592" x="178.185847" y="245.176302" style="fill: #e69f00; stroke: #e69f00"/>
     <use xlink:href="#mc414c6d592" x="328.711854" y="224.626567" style="fill: #e69f00; stroke: #e69f00"/>
     <use xlink:href="#mc414c6d592" x="479.237862" y="257.949162" style="fill: #e69f00; stroke: #e69f00"/>
    </g>
   </g>
   <g id="line2d_53">
    <g clip-path="url(#p7fe3113cb9)">
     <use xlink:href="#mc414c6d592" x="178.185847" y="225.923144" style="fill: #e69f00; stroke: #e69f00"/>
     <use xlink:href="#mc414c6d592" x="328.711854" y="203.714306" style="fill: #e69f00; stroke: #e69f00"/>
     <use xlink:href="#mc414c6d592" x="479.237862" y="228.126786" style="fill: #e69f00; stroke: #e69f00"/>
    </g>
   </g>
   <g id="line2d_54">
    <defs>
     <path id="m24d31f66a5" d="M 0 3.5 
C 0.928211 3.5 1.81853 3.131218 2.474874 2.474874 
C 3.131218 1.81853 3.5 0.928211 3.5 0 
C 3.5 -0.928211 3.131218 -1.81853 2.474874 -2.474874 
C 1.81853 -3.131218 0.928211 -3.5 0 -3.5 
C -0.928211 -3.5 -1.81853 -3.131218 -2.474874 -2.474874 
C -3.131218 -1.81853 -3.5 -0.928211 -3.5 0 
C -3.5 0.928211 -3.131218 1.81853 -2.474874 2.474874 
C -1.81853 3.131218 -0.928211 3.5 0 3.5 
z
" style="stroke: #4c72b0"/>
    </defs>
    <g clip-path="url(#p7fe3113cb9)">
     <use xlink:href="#m24d31f66a5" x="96.901803" y="116.280631" style="fill: #4c72b0; stroke: #4c72b0"/>
     <use xlink:href="#m24d31f66a5" x="247.42781" y="118.333036" style="fill: #4c72b0; stroke: #4c72b0"/>
     <use xlink:href="#m24d31f66a5" x="397.953818" y="109.597663" style="fill: #4c72b0; stroke: #4c72b0"/>
    </g>
   </g>
   <g id="line2d_55">
    <defs>
     <path id="ma2bd7e8c37" d="M 0 3.5 
C 0.928211 3.5 1.81853 3.131218 2.474874 2.474874 
C 3.131218 1.81853 3.5 0.928211 3.5 0 
C 3.5 -0.928211 3.131218 -1.81853 2.474874 -2.474874 
C 1.81853 -3.131218 0.928211 -3.5 0 -3.5 
C -0.928211 -3.5 -1.81853 -3.131218 -2.474874 -2.474874 
C -3.131218 -1.81853 -3.5 -0.928211 -3.5 0 
C -3.5 0.928211 -3.131218 1.81853 -2.474874 2.474874 
C -1.81853 3.131218 -0.928211 3.5 0 3.5 
z
" style="stroke: #55a868"/>
    </defs>
    <g clip-path="url(#p7fe3113cb9)">
     <use xlink:href="#ma2bd7e8c37" x="123.996484" y="128.464528" style="fill: #55a868; stroke: #55a868"/>
     <use xlink:href="#ma2bd7e8c37" x="274.522492" y="138.938051" style="fill: #55a868; stroke: #55a868"/>
     <use xlink:href="#ma2bd7e8c37" x="425.048499" y="122.553444" style="fill: #55a868; stroke: #55a868"/>
    </g>
   </g>
   <g id="line2d_56">
    <defs>
     <path id="mabe1443d3b" d="M 0 3.5 
C 0.928211 3.5 1.81853 3.131218 2.474874 2.474874 
C 3.131218 1.81853 3.5 0.928211 3.5 0 
C 3.5 -0.928211 3.131218 -1.81853 2.474874 -2.474874 
C 1.81853 -3.131218 0.928211 -3.5 0 -3.5 
C -0.928211 -3.5 -1.81853 -3.131218 -2.474874 -2.474874 
C -3.131218 -1.81853 -3.5 -0.928211 -3.5 0 
C -3.5 0.928211 -3.131218 1.81853 -2.474874 2.474874 
C -1.81853 3.131218 -0.928211 3.5 0 3.5 
z
" style="stroke: #8c6d1f"/>
    </defs>
    <g clip-path="url(#p7fe3113cb9)">
     <use xlink:href="#mabe1443d3b" x="151.091166" y="226.866638" style="fill: #8c6d1f; stroke: #8c6d1f"/>
     <use xlink:href="#mabe1443d3b" x="301.617173" y="211.989877" style="fill: #8c6d1f; stroke: #8c6d1f"/>
     <use xlink:href="#mabe1443d3b" x="452.143181" y="223.629613" style="fill: #8c6d1f; stroke: #8c6d1f"/>
    </g>
   </g>
   <g id="line2d_57">
    <defs>
     <path id="me97b02316f" d="M 0 3.5 
C 0.928211 3.5 1.81853 3.131218 2.474874 2.474874 
C 3.131218 1.81853 3.5 0.928211 3.5 0 
C 3.5 -0.928211 3.131218 -1.81853 2.474874 -2.474874 
C 1.81853 -3.131218 0.928211 -3.5 0 -3.5 
C -0.928211 -3.5 -1.81853 -3.131218 -2.474874 -2.474874 
C -3.131218 -1.81853 -3.5 -0.928211 -3.5 0 
C -3.5 0.928211 -3.131218 1.81853 -2.474874 2.474874 
C -1.81853 3.131218 -0.928211 3.5 0 3.5 
z
" style="stroke: #e69f00"/>
    </defs>
    <g clip-path="url(#p7fe3113cb9)">
     <use xlink:href="#me97b02316f" x="178.185847" y="233.975681" style="fill: #e69f00; stroke: #e69f00"/>
     <use xlink:href="#me97b02316f" x="328.711854" y="212.319325" style="fill: #e69f00; stroke: #e69f00"/>
     <use xlink:href="#me97b02316f" x="479.237862" y="239.351695" style="fill: #e69f00; stroke: #e69f00"/>
    </g>
   </g>
   <g id="patch_3">
    <path d="M 77.785 315.0175 
L 77.785 48.7575 
" style="fill: none; stroke: #262626; stroke-width: 1.25; stroke-linejoin: miter; stroke-linecap: square"/>
   </g>
   <g id="patch_4">
    <path d="M 137.543825 315.0175 
L 438.59584 315.0175 
" style="fill: none; stroke: #262626; stroke-width: 1.25; stroke-linejoin: miter; stroke-linecap: square"/>
   </g>
   <g id="text_11">
    <!-- Bimanual IIWA Box Transport -->
    <g style="fill: #262626" transform="translate(156.878582 33.7575) scale(0.16 -0.16)">
     <defs>
      <path id="DejaVuSans-Bold-42" d="M 2456 2859 
Q 2741 2859 2887 2984 
Q 3034 3109 3034 3353 
Q 3034 3594 2887 3720 
Q 2741 3847 2456 3847 
L 1791 3847 
L 1791 2859 
L 2456 2859 
z
M 2497 819 
Q 2859 819 3042 972 
Q 3225 1125 3225 1434 
Q 3225 1738 3044 1889 
Q 2863 2041 2497 2041 
L 1791 2041 
L 1791 819 
L 2497 819 
z
M 3616 2497 
Q 4003 2384 4215 2081 
Q 4428 1778 4428 1338 
Q 4428 663 3972 331 
Q 3516 0 2584 0 
L 588 0 
L 588 4666 
L 2394 4666 
Q 3366 4666 3802 4372 
Q 4238 4078 4238 3431 
Q 4238 3091 4078 2852 
Q 3919 2613 3616 2497 
z
" transform="scale(0.015625)"/>
      <path id="DejaVuSans-Bold-6e" d="M 4056 2131 
L 4056 0 
L 2931 0 
L 2931 347 
L 2931 1631 
Q 2931 2084 2911 2256 
Q 2891 2428 2841 2509 
Q 2775 2619 2662 2680 
Q 2550 2741 2406 2741 
Q 2056 2741 1856 2470 
Q 1656 2200 1656 1722 
L 1656 0 
L 538 0 
L 538 3500 
L 1656 3500 
L 1656 2988 
Q 1909 3294 2193 3439 
Q 2478 3584 2822 3584 
Q 3428 3584 3742 3212 
Q 4056 2841 4056 2131 
z
" transform="scale(0.015625)"/>
      <path id="DejaVuSans-Bold-75" d="M 500 1363 
L 500 3500 
L 1625 3500 
L 1625 3150 
Q 1625 2866 1622 2436 
Q 1619 2006 1619 1863 
Q 1619 1441 1641 1255 
Q 1663 1069 1716 984 
Q 1784 875 1895 815 
Q 2006 756 2150 756 
Q 2500 756 2700 1025 
Q 2900 1294 2900 1772 
L 2900 3500 
L 4019 3500 
L 4019 0 
L 2900 0 
L 2900 506 
Q 2647 200 2364 54 
Q 2081 -91 1741 -91 
Q 1134 -91 817 281 
Q 500 653 500 1363 
z
" transform="scale(0.015625)"/>
      <path id="DejaVuSans-Bold-6c" d="M 538 4863 
L 1656 4863 
L 1656 0 
L 538 0 
L 538 4863 
z
" transform="scale(0.015625)"/>
      <path id="DejaVuSans-Bold-49" d="M 588 4666 
L 1791 4666 
L 1791 0 
L 588 0 
L 588 4666 
z
" transform="scale(0.015625)"/>
      <path id="DejaVuSans-Bold-57" d="M 191 4666 
L 1344 4666 
L 2150 1275 
L 2950 4666 
L 4109 4666 
L 4909 1275 
L 5716 4666 
L 6859 4666 
L 5759 0 
L 4372 0 
L 3525 3547 
L 2688 0 
L 1300 0 
L 191 4666 
z
" transform="scale(0.015625)"/>
      <path id="DejaVuSans-Bold-41" d="M 3419 850 
L 1538 850 
L 1241 0 
L 31 0 
L 1759 4666 
L 3194 4666 
L 4922 0 
L 3713 0 
L 3419 850 
z
M 1838 1716 
L 3116 1716 
L 2478 3572 
L 1838 1716 
z
" transform="scale(0.015625)"/>
      <path id="DejaVuSans-Bold-6f" d="M 2203 2784 
Q 1831 2784 1636 2517 
Q 1441 2250 1441 1747 
Q 1441 1244 1636 976 
Q 1831 709 2203 709 
Q 2569 709 2762 976 
Q 2956 1244 2956 1747 
Q 2956 2250 2762 2517 
Q 2569 2784 2203 2784 
z
M 2203 3584 
Q 3106 3584 3614 3096 
Q 4122 2609 4122 1747 
Q 4122 884 3614 396 
Q 3106 -91 2203 -91 
Q 1297 -91 786 396 
Q 275 884 275 1747 
Q 275 2609 786 3096 
Q 1297 3584 2203 3584 
z
" transform="scale(0.015625)"/>
      <path id="DejaVuSans-Bold-78" d="M 1422 1791 
L 159 3500 
L 1344 3500 
L 2059 2463 
L 2784 3500 
L 3969 3500 
L 2706 1797 
L 4031 0 
L 2847 0 
L 2059 1106 
L 1281 0 
L 97 0 
L 1422 1791 
z
" transform="scale(0.015625)"/>
      <path id="DejaVuSans-Bold-72" d="M 3138 2547 
Q 2991 2616 2845 2648 
Q 2700 2681 2553 2681 
Q 2122 2681 1889 2404 
Q 1656 2128 1656 1613 
L 1656 0 
L 538 0 
L 538 3500 
L 1656 3500 
L 1656 2925 
Q 1872 3269 2151 3426 
Q 2431 3584 2822 3584 
Q 2878 3584 2943 3579 
Q 3009 3575 3134 3559 
L 3138 2547 
z
" transform="scale(0.015625)"/>
      <path id="DejaVuSans-Bold-70" d="M 1656 506 
L 1656 -1331 
L 538 -1331 
L 538 3500 
L 1656 3500 
L 1656 2988 
Q 1888 3294 2169 3439 
Q 2450 3584 2816 3584 
Q 3463 3584 3878 3070 
Q 4294 2556 4294 1747 
Q 4294 938 3878 423 
Q 3463 -91 2816 -91 
Q 2450 -91 2169 54 
Q 1888 200 1656 506 
z
M 2400 2772 
Q 2041 2772 1848 2508 
Q 1656 2244 1656 1747 
Q 1656 1250 1848 986 
Q 2041 722 2400 722 
Q 2759 722 2948 984 
Q 3138 1247 3138 1747 
Q 3138 2247 2948 2509 
Q 2759 2772 2400 2772 
z
" transform="scale(0.015625)"/>
      <path id="DejaVuSans-Bold-74" d="M 1759 4494 
L 1759 3500 
L 2913 3500 
L 2913 2700 
L 1759 2700 
L 1759 1216 
Q 1759 972 1856 886 
Q 1953 800 2241 800 
L 2816 800 
L 2816 0 
L 1856 0 
Q 1194 0 917 276 
Q 641 553 641 1216 
L 641 2700 
L 84 2700 
L 84 3500 
L 641 3500 
L 641 4494 
L 1759 4494 
z
" transform="scale(0.015625)"/>
     </defs>
     <use xlink:href="#DejaVuSans-Bold-42"/>
     <use xlink:href="#DejaVuSans-Bold-69" x="76.220703"/>
     <use xlink:href="#DejaVuSans-Bold-6d" x="110.498047"/>
     <use xlink:href="#DejaVuSans-Bold-61" x="214.697266"/>
     <use xlink:href="#DejaVuSans-Bold-6e" x="282.177734"/>
     <use xlink:href="#DejaVuSans-Bold-75" x="353.369141"/>
     <use xlink:href="#DejaVuSans-Bold-61" x="424.560547"/>
     <use xlink:href="#DejaVuSans-Bold-6c" x="492.041016"/>
     <use xlink:href="#DejaVuSans-Bold-20" x="526.318359"/>
     <use xlink:href="#DejaVuSans-Bold-49" x="561.132812"/>
     <use xlink:href="#DejaVuSans-Bold-49" x="598.339844"/>
     <use xlink:href="#DejaVuSans-Bold-57" x="635.546875"/>
     <use xlink:href="#DejaVuSans-Bold-41" x="741.349609"/>
     <use xlink:href="#DejaVuSans-Bold-20" x="818.742188"/>
     <use xlink:href="#DejaVuSans-Bold-42" x="853.556641"/>
     <use xlink:href="#DejaVuSans-Bold-6f" x="929.777344"/>
     <use xlink:href="#DejaVuSans-Bold-78" x="998.478516"/>
     <use xlink:href="#DejaVuSans-Bold-20" x="1062.980469"/>
     <use xlink:href="#DejaVuSans-Bold-54" x="1097.794922"/>
     <use xlink:href="#DejaVuSans-Bold-72" x="1155.007812"/>
     <use xlink:href="#DejaVuSans-Bold-61" x="1204.324219"/>
     <use xlink:href="#DejaVuSans-Bold-6e" x="1271.804688"/>
     <use xlink:href="#DejaVuSans-Bold-73" x="1342.996094"/>
     <use xlink:href="#DejaVuSans-Bold-70" x="1402.517578"/>
     <use xlink:href="#DejaVuSans-Bold-6f" x="1474.099609"/>
     <use xlink:href="#DejaVuSans-Bold-72" x="1542.800781"/>
     <use xlink:href="#DejaVuSans-Bold-74" x="1592.117188"/>
    </g>
   </g>
   <g id="legend_1">
    <g id="patch_5">
     <path d="M 99.885457 74.736375 
L 476.254207 74.736375 
Q 478.254207 74.736375 478.254207 72.736375 
L 478.254207 42.4445 
Q 478.254207 40.4445 476.254207 40.4445 
L 99.885457 40.4445 
Q 97.885457 40.4445 97.885457 42.4445 
L 97.885457 72.736375 
Q 97.885457 74.736375 99.885457 74.736375 
z
" style="fill: #ffffff; opacity: 0.8; stroke: #000000; stroke-linejoin: miter"/>
    </g>
    <g id="text_12">
     <!-- Planner -->
     <g style="fill: #262626" transform="translate(265.344832 53.562625) scale(0.12 -0.12)">
      <defs>
       <path id="DejaVuSans-50" d="M 1259 4147 
L 1259 2394 
L 2053 2394 
Q 2494 2394 2734 2622 
Q 2975 2850 2975 3272 
Q 2975 3691 2734 3919 
Q 2494 4147 2053 4147 
L 1259 4147 
z
M 628 4666 
L 2053 4666 
Q 2838 4666 3239 4311 
Q 3641 3956 3641 3272 
Q 3641 2581 3239 2228 
Q 2838 1875 2053 1875 
L 1259 1875 
L 1259 0 
L 628 0 
L 628 4666 
z
" transform="scale(0.015625)"/>
       <path id="DejaVuSans-6c" d="M 603 4863 
L 1178 4863 
L 1178 0 
L 603 0 
L 603 4863 
z
" transform="scale(0.015625)"/>
       <path id="DejaVuSans-61" d="M 2194 1759 
Q 1497 1759 1228 1600 
Q 959 1441 959 1056 
Q 959 750 1161 570 
Q 1363 391 1709 391 
Q 2188 391 2477 730 
Q 2766 1069 2766 1631 
L 2766 1759 
L 2194 1759 
z
M 3341 1997 
L 3341 0 
L 2766 0 
L 2766 531 
Q 2569 213 2275 61 
Q 1981 -91 1556 -91 
Q 1019 -91 701 211 
Q 384 513 384 1019 
Q 384 1609 779 1909 
Q 1175 2209 1959 2209 
L 2766 2209 
L 2766 2266 
Q 2766 2663 2505 2880 
Q 2244 3097 1772 3097 
Q 1472 3097 1187 3025 
Q 903 2953 641 2809 
L 641 3341 
Q 956 3463 1253 3523 
Q 1550 3584 1831 3584 
Q 2591 3584 2966 3190 
Q 3341 2797 3341 1997 
z
" transform="scale(0.015625)"/>
       <path id="DejaVuSans-6e" d="M 3513 2113 
L 3513 0 
L 2938 0 
L 2938 2094 
Q 2938 2591 2744 2837 
Q 2550 3084 2163 3084 
Q 1697 3084 1428 2787 
Q 1159 2491 1159 1978 
L 1159 0 
L 581 0 
L 581 3500 
L 1159 3500 
L 1159 2956 
Q 1366 3272 1645 3428 
Q 1925 3584 2291 3584 
Q 2894 3584 3203 3211 
Q 3513 2838 3513 2113 
z
" transform="scale(0.015625)"/>
       <path id="DejaVuSans-65" d="M 3597 1894 
L 3597 1613 
L 953 1613 
Q 991 1019 1311 708 
Q 1631 397 2203 397 
Q 2534 397 2845 478 
Q 3156 559 3463 722 
L 3463 178 
Q 3153 47 2828 -22 
Q 2503 -91 2169 -91 
Q 1331 -91 842 396 
Q 353 884 353 1716 
Q 353 2575 817 3079 
Q 1281 3584 2069 3584 
Q 2775 3584 3186 3129 
Q 3597 2675 3597 1894 
z
M 3022 2063 
Q 3016 2534 2758 2815 
Q 2500 3097 2075 3097 
Q 1594 3097 1305 2825 
Q 1016 2553 972 2059 
L 3022 2063 
z
" transform="scale(0.015625)"/>
       <path id="DejaVuSans-72" d="M 2631 2963 
Q 2534 3019 2420 3045 
Q 2306 3072 2169 3072 
Q 1681 3072 1420 2755 
Q 1159 2438 1159 1844 
L 1159 0 
L 581 0 
L 581 3500 
L 1159 3500 
L 1159 2956 
Q 1341 3275 1631 3429 
Q 1922 3584 2338 3584 
Q 2397 3584 2469 3576 
Q 2541 3569 2628 3553 
L 2631 2963 
z
" transform="scale(0.015625)"/>
      </defs>
      <use xlink:href="#DejaVuSans-50"/>
      <use xlink:href="#DejaVuSans-6c" x="60.302734"/>
      <use xlink:href="#DejaVuSans-61" x="88.085938"/>
      <use xlink:href="#DejaVuSans-6e" x="149.365234"/>
      <use xlink:href="#DejaVuSans-6e" x="212.744141"/>
      <use xlink:href="#DejaVuSans-65" x="276.123047"/>
      <use xlink:href="#DejaVuSans-72" x="337.646484"/>
     </g>
    </g>
    <g id="LineCollection_5">
     <path d="M 111.885457 70.156688 
L 111.885457 60.156688 
" style="fill: none; stroke: #4c72b0; stroke-width: 1.5"/>
    </g>
    <g id="line2d_58">
     <g>
      <use xlink:href="#m26ecb72b24" x="111.885457" y="70.156688" style="fill: #4c72b0; stroke: #4c72b0"/>
     </g>
    </g>
    <g id="line2d_59">
     <g>
      <use xlink:href="#m26ecb72b24" x="111.885457" y="60.156688" style="fill: #4c72b0; stroke: #4c72b0"/>
     </g>
    </g>
    <g id="line2d_60"/>
    <g id="line2d_61">
     <g>
      <use xlink:href="#m24d31f66a5" x="111.885457" y="65.156688" style="fill: #4c72b0; stroke: #4c72b0"/>
     </g>
    </g>
    <g id="text_13">
     <!-- IK-BiRRT -->
     <g style="fill: #262626" transform="translate(129.885457 68.656688) scale(0.1 -0.1)">
      <defs>
       <path id="DejaVuSans-49" d="M 628 4666 
L 1259 4666 
L 1259 0 
L 628 0 
L 628 4666 
z
" transform="scale(0.015625)"/>
       <path id="DejaVuSans-4b" d="M 628 4666 
L 1259 4666 
L 1259 2694 
L 3353 4666 
L 4166 4666 
L 1850 2491 
L 4331 0 
L 3500 0 
L 1259 2247 
L 1259 0 
L 628 0 
L 628 4666 
z
" transform="scale(0.015625)"/>
       <path id="DejaVuSans-2d" d="M 313 2009 
L 1997 2009 
L 1997 1497 
L 313 1497 
L 313 2009 
z
" transform="scale(0.015625)"/>
       <path id="DejaVuSans-69" d="M 603 3500 
L 1178 3500 
L 1178 0 
L 603 0 
L 603 3500 
z
M 603 4863 
L 1178 4863 
L 1178 4134 
L 603 4134 
L 603 4863 
z
" transform="scale(0.015625)"/>
       <path id="DejaVuSans-52" d="M 2841 2188 
Q 3044 2119 3236 1894 
Q 3428 1669 3622 1275 
L 4263 0 
L 3584 0 
L 2988 1197 
Q 2756 1666 2539 1819 
Q 2322 1972 1947 1972 
L 1259 1972 
L 1259 0 
L 628 0 
L 628 4666 
L 2053 4666 
Q 2853 4666 3247 4331 
Q 3641 3997 3641 3322 
Q 3641 2881 3436 2590 
Q 3231 2300 2841 2188 
z
M 1259 4147 
L 1259 2491 
L 2053 2491 
Q 2509 2491 2742 2702 
Q 2975 2913 2975 3322 
Q 2975 3731 2742 3939 
Q 2509 4147 2053 4147 
L 1259 4147 
z
" transform="scale(0.015625)"/>
      </defs>
      <use xlink:href="#DejaVuSans-49"/>
      <use xlink:href="#DejaVuSans-4b" x="29.492188"/>
      <use xlink:href="#DejaVuSans-2d" x="84.568359"/>
      <use xlink:href="#DejaVuSans-42" x="117.027344"/>
      <use xlink:href="#DejaVuSans-69" x="185.630859"/>
      <use xlink:href="#DejaVuSans-52" x="213.414062"/>
      <use xlink:href="#DejaVuSans-52" x="282.896484"/>
      <use xlink:href="#DejaVuSans-54" x="345.128906"/>
     </g>
    </g>
    <g id="LineCollection_6">
     <path d="M 200.507332 70.156688 
L 200.507332 60.156688 
" style="fill: none; stroke: #55a868; stroke-width: 1.5"/>
    </g>
    <g id="line2d_62">
     <g>
      <use xlink:href="#m15c675008e" x="200.507332" y="70.156688" style="fill: #55a868; stroke: #55a868"/>
     </g>
    </g>
    <g id="line2d_63">
     <g>
      <use xlink:href="#m15c675008e" x="200.507332" y="60.156688" style="fill: #55a868; stroke: #55a868"/>
     </g>
    </g>
    <g id="line2d_64"/>
    <g id="line2d_65">
     <g>
      <use xlink:href="#ma2bd7e8c37" x="200.507332" y="65.156688" style="fill: #55a868; stroke: #55a868"/>
     </g>
    </g>
    <g id="text_14">
     <!-- IK-GCS -->
     <g style="fill: #262626" transform="translate(218.507332 68.656688) scale(0.1 -0.1)">
      <defs>
       <path id="DejaVuSans-47" d="M 3809 666 
L 3809 1919 
L 2778 1919 
L 2778 2438 
L 4434 2438 
L 4434 434 
Q 4069 175 3628 42 
Q 3188 -91 2688 -91 
Q 1594 -91 976 548 
Q 359 1188 359 2328 
Q 359 3472 976 4111 
Q 1594 4750 2688 4750 
Q 3144 4750 3555 4637 
Q 3966 4525 4313 4306 
L 4313 3634 
Q 3963 3931 3569 4081 
Q 3175 4231 2741 4231 
Q 1884 4231 1454 3753 
Q 1025 3275 1025 2328 
Q 1025 1384 1454 906 
Q 1884 428 2741 428 
Q 3075 428 3337 486 
Q 3600 544 3809 666 
z
" transform="scale(0.015625)"/>
       <path id="DejaVuSans-43" d="M 4122 4306 
L 4122 3641 
Q 3803 3938 3442 4084 
Q 3081 4231 2675 4231 
Q 1875 4231 1450 3742 
Q 1025 3253 1025 2328 
Q 1025 1406 1450 917 
Q 1875 428 2675 428 
Q 3081 428 3442 575 
Q 3803 722 4122 1019 
L 4122 359 
Q 3791 134 3420 21 
Q 3050 -91 2638 -91 
Q 1578 -91 968 557 
Q 359 1206 359 2328 
Q 359 3453 968 4101 
Q 1578 4750 2638 4750 
Q 3056 4750 3426 4639 
Q 3797 4528 4122 4306 
z
" transform="scale(0.015625)"/>
       <path id="DejaVuSans-53" d="M 3425 4513 
L 3425 3897 
Q 3066 4069 2747 4153 
Q 2428 4238 2131 4238 
Q 1616 4238 1336 4038 
Q 1056 3838 1056 3469 
Q 1056 3159 1242 3001 
Q 1428 2844 1947 2747 
L 2328 2669 
Q 3034 2534 3370 2195 
Q 3706 1856 3706 1288 
Q 3706 609 3251 259 
Q 2797 -91 1919 -91 
Q 1588 -91 1214 -16 
Q 841 59 441 206 
L 441 856 
Q 825 641 1194 531 
Q 1563 422 1919 422 
Q 2459 422 2753 634 
Q 3047 847 3047 1241 
Q 3047 1584 2836 1778 
Q 2625 1972 2144 2069 
L 1759 2144 
Q 1053 2284 737 2584 
Q 422 2884 422 3419 
Q 422 4038 858 4394 
Q 1294 4750 2059 4750 
Q 2388 4750 2728 4690 
Q 3069 4631 3425 4513 
z
" transform="scale(0.015625)"/>
      </defs>
      <use xlink:href="#DejaVuSans-49"/>
      <use xlink:href="#DejaVuSans-4b" x="29.492188"/>
      <use xlink:href="#DejaVuSans-2d" x="84.568359"/>
      <use xlink:href="#DejaVuSans-47" x="124.277344"/>
      <use xlink:href="#DejaVuSans-43" x="201.767578"/>
      <use xlink:href="#DejaVuSans-53" x="271.591797"/>
     </g>
    </g>
    <g id="LineCollection_7">
     <path d="M 282.015145 70.156688 
L 282.015145 60.156688 
" style="fill: none; stroke: #8c6d1f; stroke-width: 1.5"/>
    </g>
    <g id="line2d_66">
     <g>
      <use xlink:href="#m737354b1aa" x="282.015145" y="70.156688" style="fill: #8c6d1f; stroke: #8c6d1f"/>
     </g>
    </g>
    <g id="line2d_67">
     <g>
      <use xlink:href="#m737354b1aa" x="282.015145" y="60.156688" style="fill: #8c6d1f; stroke: #8c6d1f"/>
     </g>
    </g>
    <g id="line2d_68"/>
    <g id="line2d_69">
     <g>
      <use xlink:href="#mabe1443d3b" x="282.015145" y="65.156688" style="fill: #8c6d1f; stroke: #8c6d1f"/>
     </g>
    </g>
    <g id="text_15">
     <!-- McVAMP (1-step) -->
     <g style="fill: #262626" transform="translate(300.015145 68.656688) scale(0.1 -0.1)">
      <defs>
       <path id="DejaVuSans-63" d="M 3122 3366 
L 3122 2828 
Q 2878 2963 2633 3030 
Q 2388 3097 2138 3097 
Q 1578 3097 1268 2742 
Q 959 2388 959 1747 
Q 959 1106 1268 751 
Q 1578 397 2138 397 
Q 2388 397 2633 464 
Q 2878 531 3122 666 
L 3122 134 
Q 2881 22 2623 -34 
Q 2366 -91 2075 -91 
Q 1284 -91 818 406 
Q 353 903 353 1747 
Q 353 2603 823 3093 
Q 1294 3584 2113 3584 
Q 2378 3584 2631 3529 
Q 2884 3475 3122 3366 
z
" transform="scale(0.015625)"/>
       <path id="DejaVuSans-56" d="M 1831 0 
L 50 4666 
L 709 4666 
L 2188 738 
L 3669 4666 
L 4325 4666 
L 2547 0 
L 1831 0 
z
" transform="scale(0.015625)"/>
       <path id="DejaVuSans-41" d="M 2188 4044 
L 1331 1722 
L 3047 1722 
L 2188 4044 
z
M 1831 4666 
L 2547 4666 
L 4325 0 
L 3669 0 
L 3244 1197 
L 1141 1197 
L 716 0 
L 50 0 
L 1831 4666 
z
" transform="scale(0.015625)"/>
       <path id="DejaVuSans-20" transform="scale(0.015625)"/>
       <path id="DejaVuSans-28" d="M 1984 4856 
Q 1566 4138 1362 3434 
Q 1159 2731 1159 2009 
Q 1159 1288 1364 580 
Q 1569 -128 1984 -844 
L 1484 -844 
Q 1016 -109 783 600 
Q 550 1309 550 2009 
Q 550 2706 781 3412 
Q 1013 4119 1484 4856 
L 1984 4856 
z
" transform="scale(0.015625)"/>
       <path id="DejaVuSans-73" d="M 2834 3397 
L 2834 2853 
Q 2591 2978 2328 3040 
Q 2066 3103 1784 3103 
Q 1356 3103 1142 2972 
Q 928 2841 928 2578 
Q 928 2378 1081 2264 
Q 1234 2150 1697 2047 
L 1894 2003 
Q 2506 1872 2764 1633 
Q 3022 1394 3022 966 
Q 3022 478 2636 193 
Q 2250 -91 1575 -91 
Q 1294 -91 989 -36 
Q 684 19 347 128 
L 347 722 
Q 666 556 975 473 
Q 1284 391 1588 391 
Q 1994 391 2212 530 
Q 2431 669 2431 922 
Q 2431 1156 2273 1281 
Q 2116 1406 1581 1522 
L 1381 1569 
Q 847 1681 609 1914 
Q 372 2147 372 2553 
Q 372 3047 722 3315 
Q 1072 3584 1716 3584 
Q 2034 3584 2315 3537 
Q 2597 3491 2834 3397 
z
" transform="scale(0.015625)"/>
       <path id="DejaVuSans-74" d="M 1172 4494 
L 1172 3500 
L 2356 3500 
L 2356 3053 
L 1172 3053 
L 1172 1153 
Q 1172 725 1289 603 
Q 1406 481 1766 481 
L 2356 481 
L 2356 0 
L 1766 0 
Q 1100 0 847 248 
Q 594 497 594 1153 
L 594 3053 
L 172 3053 
L 172 3500 
L 594 3500 
L 594 4494 
L 1172 4494 
z
" transform="scale(0.015625)"/>
       <path id="DejaVuSans-70" d="M 1159 525 
L 1159 -1331 
L 581 -1331 
L 581 3500 
L 1159 3500 
L 1159 2969 
Q 1341 3281 1617 3432 
Q 1894 3584 2278 3584 
Q 2916 3584 3314 3078 
Q 3713 2572 3713 1747 
Q 3713 922 3314 415 
Q 2916 -91 2278 -91 
Q 1894 -91 1617 61 
Q 1341 213 1159 525 
z
M 3116 1747 
Q 3116 2381 2855 2742 
Q 2594 3103 2138 3103 
Q 1681 3103 1420 2742 
Q 1159 2381 1159 1747 
Q 1159 1113 1420 752 
Q 1681 391 2138 391 
Q 2594 391 2855 752 
Q 3116 1113 3116 1747 
z
" transform="scale(0.015625)"/>
       <path id="DejaVuSans-29" d="M 513 4856 
L 1013 4856 
Q 1481 4119 1714 3412 
Q 1947 2706 1947 2009 
Q 1947 1309 1714 600 
Q 1481 -109 1013 -844 
L 513 -844 
Q 928 -128 1133 580 
Q 1338 1288 1338 2009 
Q 1338 2731 1133 3434 
Q 928 4138 513 4856 
z
" transform="scale(0.015625)"/>
      </defs>
      <use xlink:href="#DejaVuSans-4d"/>
      <use xlink:href="#DejaVuSans-63" x="86.279297"/>
      <use xlink:href="#DejaVuSans-56" x="141.259766"/>
      <use xlink:href="#DejaVuSans-41" x="203.292969"/>
      <use xlink:href="#DejaVuSans-4d" x="271.701172"/>
      <use xlink:href="#DejaVuSans-50" x="357.980469"/>
      <use xlink:href="#DejaVuSans-20" x="418.283203"/>
      <use xlink:href="#DejaVuSans-28" x="450.070312"/>
      <use xlink:href="#DejaVuSans-31" x="489.083984"/>
      <use xlink:href="#DejaVuSans-2d" x="552.707031"/>
      <use xlink:href="#DejaVuSans-73" x="588.791016"/>
      <use xlink:href="#DejaVuSans-74" x="640.890625"/>
      <use xlink:href="#DejaVuSans-65" x="680.099609"/>
      <use xlink:href="#DejaVuSans-70" x="741.623047"/>
      <use xlink:href="#DejaVuSans-29" x="805.099609"/>
     </g>
    </g>
    <g id="LineCollection_8">
     <path d="M 414.426082 70.156688 
L 414.426082 60.156688 
" style="fill: none; stroke: #e69f00; stroke-width: 1.5"/>
    </g>
    <g id="line2d_70">
     <g>
      <use xlink:href="#mc414c6d592" x="414.426082" y="70.156688" style="fill: #e69f00; stroke: #e69f00"/>
     </g>
    </g>
    <g id="line2d_71">
     <g>
      <use xlink:href="#mc414c6d592" x="414.426082" y="60.156688" style="fill: #e69f00; stroke: #e69f00"/>
     </g>
    </g>
    <g id="line2d_72"/>
    <g id="line2d_73">
     <g>
      <use xlink:href="#me97b02316f" x="414.426082" y="65.156688" style="fill: #e69f00; stroke: #e69f00"/>
     </g>
    </g>
    <g id="text_16">
     <!-- McVAMP -->
     <g style="fill: #262626" transform="translate(432.426082 68.656688) scale(0.1 -0.1)">
      <use xlink:href="#DejaVuSans-4d"/>
      <use xlink:href="#DejaVuSans-63" x="86.279297"/>
      <use xlink:href="#DejaVuSans-56" x="141.259766"/>
      <use xlink:href="#DejaVuSans-41" x="203.292969"/>
      <use xlink:href="#DejaVuSans-4d" x="271.701172"/>
      <use xlink:href="#DejaVuSans-50" x="357.980469"/>
     </g>
    </g>
   </g>
  </g>
 </g>
 <defs>
  <clipPath id="p7fe3113cb9">
   <rect x="77.785" y="48.7575" width="420.569665" height="266.26"/>
  </clipPath>
 </defs>
</svg>
